<?xml version="1.0" encoding="utf-8"?>
<!-- Generator: Adobe Illustrator 19.0.0, SVG Export Plug-In . SVG Version: 6.00 Build 0)  -->
<svg version="1.1" id="Layer_1" xmlns="http://www.w3.org/2000/svg" xmlns:xlink="http://www.w3.org/1999/xlink" x="0px" y="0px"
	 viewBox="0 0 800 216.5" style="enable-background:new 0 0 800 216.5;" xml:space="preserve">
<style type="text/css">
	.st0{fill:#010101;}
	.st1{fill:#F8971D;}
	.st2{fill:#FFFFFF;}
</style>
<g>
	<polygon class="st0" points="778.3,154.2 538,154.2 536.9,73.9 777.3,73.9 	"/>
	<g>
		<path class="st1" d="M129.7,102.6h-100c-2.5,0-4.5-2-4.5-4.5v-6.6c0-20.6,16.7-37.3,37.3-37.3h34.5c20.6,0,37.3,16.7,37.3,37.3V98
			C134.2,100.5,132.2,102.6,129.7,102.6L129.7,102.6z M34.2,93.4h90.9v-2.1c0-15.5-12.6-28.2-28.2-28.2H62.4
			c-15.5,0-28.2,12.6-28.2,28.2V93.4z M34.2,93.4"/>
		<path class="st1" d="M119.6,163.2H39.7c-8.1,0-14.6-6.5-14.6-14.6v-12.1c0-2.5,2-4.5,4.5-4.5h100c2.5,0,4.5,2,4.5,4.5v12.1
			C134.2,156.7,127.7,163.2,119.6,163.2L119.6,163.2z M34.2,141.1v7.5c0,3.1,2.5,5.5,5.5,5.5h79.9c3.1,0,5.5-2.5,5.5-5.5v-7.5H34.2z
			 M34.2,141.1"/>
		<path class="st1" d="M29.7,126.2c-1.6,0-3.2-0.8-4-2.4c-1.2-2.2-0.4-5,1.8-6.2l9.4-5.1c5.6-3.1,12.5-3.1,18.1,0
			c2.9,1.6,6.5,1.6,9.4,0l4.2-2.3c5.6-3.1,12.6-3.1,18.1,0l3.9,2.1c2.9,1.6,6.5,1.6,9.4,0l4.6-2.5c5.6-3.1,12.5-3.1,18.2,0l9.1,5
			c2.2,1.2,3,4,1.8,6.2c-1.2,2.2-4,3-6.2,1.8l-9.1-5c-2.9-1.6-6.5-1.6-9.4,0l-4.6,2.5c-5.6,3.1-12.5,3.1-18.1,0l-3.9-2.1
			c-2.9-1.6-6.5-1.6-9.4,0l-4.2,2.3c-5.6,3.1-12.6,3.1-18.2,0c-2.9-1.6-6.5-1.6-9.4,0l-9.4,5.1C31.2,126,30.4,126.2,29.7,126.2
			L29.7,126.2z M29.7,126.2"/>
	</g>
	<g>
		<path class="st0" d="M229.3,110.9c2.4,3.1,3.5,6.9,3.5,11.4c0,6.4-2.5,11.3-7.5,14.8c-5,3.5-12.2,5.2-21.7,5.2h-37.8v-73h35.7
			c8.9,0,15.7,1.7,20.5,5.1c4.8,3.4,7.1,8,7.1,13.9c0,3.5-0.9,6.7-2.6,9.5c-1.7,2.8-4.1,5-7.1,6.6
			C223.7,105.6,226.9,107.8,229.3,110.9z M182.7,81.9v17.2h16.8c4.2,0,7.3-0.7,9.5-2.2c2.2-1.5,3.2-3.6,3.2-6.5c0-2.8-1.1-5-3.2-6.4
			c-2.1-1.4-5.3-2.1-9.5-2.1H182.7z M212.4,127.3c2.3-1.5,3.4-3.7,3.4-6.8c0-6.1-4.5-9.1-13.5-9.1h-19.7v18h19.7
			C206.8,129.5,210.2,128.8,212.4,127.3z"/>
		<path class="st0" d="M298.5,86.1v56.1H283v-6.7c-2.2,2.4-4.7,4.3-7.7,5.6c-3,1.3-6.2,1.9-9.7,1.9c-7.4,0-13.2-2.1-17.5-6.4
			c-4.3-4.2-6.5-10.5-6.5-18.9V86.1h16.3v29.3c0,9,3.8,13.5,11.4,13.5c3.9,0,7-1.3,9.4-3.8c2.3-2.5,3.5-6.3,3.5-11.3V86.1H298.5z"/>
		<path class="st0" d="M334.4,87.4c3.3-1.4,7.1-2.1,11.4-2.1v15c-1.8-0.1-3-0.2-3.7-0.2c-4.7,0-8.3,1.3-10.9,3.9
			c-2.6,2.6-4,6.5-4,11.7v26.5H311V86.1h15.5v7.4C328.5,90.8,331.1,88.8,334.4,87.4z"/>
		<path class="st0" d="M410.3,86.1v46.7c0,10.3-2.7,17.9-8,23c-5.4,5-13.2,7.5-23.5,7.5c-5.4,0-10.6-0.7-15.4-2
			c-4.9-1.3-8.9-3.2-12.1-5.7l6.5-11.7c2.4,1.9,5.4,3.5,9,4.7c3.6,1.1,7.2,1.7,10.9,1.7c5.6,0,9.8-1.3,12.5-3.8
			c2.7-2.5,4-6.4,4-11.5v-2.4c-4.2,4.7-10.2,7-17.7,7c-5.2,0-9.9-1.1-14.1-3.4c-4.3-2.3-7.7-5.4-10.2-9.5c-2.5-4.1-3.7-8.8-3.7-14.2
			c0-5.3,1.3-10.1,3.7-14.2c2.5-4.1,5.9-7.3,10.2-9.5c4.3-2.3,9-3.4,14.1-3.4c8.1,0,14.3,2.7,18.6,8v-7.2H410.3z M390.1,122.4
			c2.7-2.5,4.1-5.9,4.1-10c0-4.1-1.4-7.4-4.1-10c-2.7-2.5-6.3-3.8-10.6-3.8c-4.3,0-7.9,1.3-10.6,3.8c-2.8,2.5-4.2,5.9-4.2,10
			c0,4.1,1.4,7.4,4.2,10c2.8,2.5,6.3,3.8,10.6,3.8C383.8,126.2,387.4,124.9,390.1,122.4z"/>
		<path class="st0" d="M477.5,118.8H435c0.8,3.5,2.6,6.2,5.4,8.2c2.9,2,6.4,3,10.7,3c2.9,0,5.5-0.4,7.8-1.3c2.3-0.9,4.4-2.2,6.3-4.1
			l8.7,9.4c-5.3,6.1-13,9.1-23.2,9.1c-6.3,0-11.9-1.2-16.8-3.7c-4.9-2.5-8.6-5.9-11.3-10.3c-2.6-4.4-4-9.4-4-14.9
			c0-5.5,1.3-10.4,3.9-14.9c2.6-4.4,6.2-7.9,10.7-10.3c4.6-2.5,9.7-3.7,15.3-3.7c5.5,0,10.5,1.2,14.9,3.5c4.4,2.4,7.9,5.8,10.5,10.2
			c2.5,4.4,3.8,9.5,3.8,15.4C477.8,114.6,477.7,116.1,477.5,118.8z M439.4,100.7c-2.5,2.1-4,4.9-4.6,8.6h27.7
			c-0.6-3.5-2.1-6.4-4.6-8.5c-2.5-2.1-5.6-3.2-9.2-3.2C445,97.6,441.9,98.6,439.4,100.7z"/>
		<path class="st0" d="M509.5,87.4c3.3-1.4,7.1-2.1,11.4-2.1v15c-1.8-0.1-3-0.2-3.7-0.2c-4.7,0-8.3,1.3-11,3.9
			c-2.6,2.6-4,6.5-4,11.7v26.5H486V86.1h15.5v7.4C503.5,90.8,506.2,88.8,509.5,87.4z"/>
		<path class="st2" d="M597,92.2c3.4,2.7,5.1,6.4,5.1,11.3c0,6.9-2.2,12.2-6.7,16c-4.4,3.8-10.6,5.7-18.4,5.7h-15.3l-3.5,17.1h-5.6
			l10.8-54h19.4C588.8,88.2,593.6,89.6,597,92.2z M591.3,116.1c3.4-2.7,5-6.7,5-12c0-3.5-1.2-6.3-3.6-8.1c-2.4-1.9-5.9-2.8-10.4-2.8
			h-14.2l-5.5,27h14.4C583.2,120.2,588,118.8,591.3,116.1z"/>
		<path class="st2" d="M621.8,103.2c2.7-1.3,6-1.9,9.9-1.9l-1,5.3l-1.5-0.1c-4.4,0-8,1.3-10.8,3.8c-2.8,2.5-4.7,6.3-5.7,11.3
			l-4.1,20.6h-5.5l8-40.6h5.2l-1.4,7.4C616.8,106.4,619.1,104.5,621.8,103.2z"/>
		<path class="st2" d="M639.6,101.6h5.5l-8,40.6h-5.5L639.6,101.6z M642,91.7c-0.7-0.7-1-1.6-1-2.5c0-1.2,0.4-2.2,1.2-3
			c0.8-0.8,1.8-1.2,3-1.2c1.1,0,2,0.4,2.7,1c0.7,0.7,1.1,1.5,1.1,2.4c0,1.2-0.4,2.3-1.2,3.1c-0.8,0.8-1.8,1.2-3.1,1.2
			C643.6,92.8,642.7,92.4,642,91.7z"/>
		<path class="st2" d="M689,104.9c2.5,2.3,3.8,5.6,3.8,9.7c0,1.4-0.2,3-0.5,4.6l-4.6,23.1h-5.5l4.6-23.2c0.3-1.4,0.4-2.7,0.4-3.7
			c0-2.9-0.9-5.2-2.7-6.8c-1.8-1.6-4.4-2.3-7.8-2.3c-4.4,0-8,1.2-10.8,3.6c-2.8,2.4-4.7,5.9-5.7,10.6l-4.3,21.8h-5.5l8-40.6h5.2
			l-1.3,6.5c3.9-4.5,9.1-6.8,15.9-6.8C682.9,101.3,686.4,102.5,689,104.9z"/>
		<path class="st2" d="M709.5,130c-0.2,1.2-0.3,2.1-0.3,2.6c0,3.6,2,5.4,5.9,5.4c2.3,0,4.4-0.7,6.2-2.1l1.3,4.2
			c-2.3,1.7-5.3,2.6-9,2.6c-3,0-5.4-0.8-7.2-2.5c-1.8-1.6-2.7-3.9-2.7-6.8c0-1.1,0.1-2.2,0.3-3.2l4.7-23.9h-7.2l0.8-4.6h7.3l1.8-8.9
			h5.5l-1.8,8.9h12.3l-0.9,4.6h-12.3L709.5,130z"/>
		<path class="st2" d="M732.7,141.2c-3-0.9-5.2-2.1-6.8-3.5l2.6-4.3c1.5,1.3,3.6,2.4,6.1,3.2c2.5,0.8,5.2,1.2,7.9,1.2
			c3.9,0,6.8-0.6,8.9-1.9c2.1-1.3,3.1-3,3.1-5.4c0-1.3-0.4-2.3-1.3-3.1c-0.8-0.8-1.9-1.4-3.1-1.8c-1.2-0.4-3-0.9-5.4-1.4
			c-2.8-0.6-5.1-1.2-6.9-1.8c-1.8-0.6-3.3-1.6-4.5-2.9c-1.2-1.3-1.9-3.2-1.9-5.6c0-3.9,1.6-6.9,4.8-9.2c3.2-2.3,7.5-3.4,12.8-3.4
			c2.6,0,5.2,0.4,7.7,1c2.5,0.7,4.5,1.6,6.1,2.7l-2.3,4.4c-1.5-1.1-3.4-2-5.4-2.6c-2.1-0.6-4.2-0.9-6.5-0.9c-3.7,0-6.6,0.7-8.6,2
			c-2.1,1.3-3.1,3.1-3.1,5.4c0,1.3,0.4,2.4,1.3,3.3c0.9,0.8,2,1.4,3.3,1.8c1.3,0.4,3.1,0.9,5.4,1.3c2.8,0.6,5,1.2,6.8,1.8
			c1.7,0.6,3.2,1.6,4.4,2.9c1.2,1.3,1.9,3.1,1.9,5.4c0,4-1.6,7.1-4.9,9.3c-3.3,2.2-7.6,3.4-13.1,3.4
			C738.7,142.6,735.6,142.2,732.7,141.2z"/>
	</g>
</g>
</svg>
